<?xml version="1.0" encoding="UTF-8"?>
<!-- Generator: visioncortex VTracer 0.6.4 -->
<svg version="1.1" xmlns="http://www.w3.org/2000/svg" width="3024" height="1716">
<path d="M0 0 C2 3 2 3 1.81 4.94 C0.13 9.2 0.13 9.2 -2 11 C-6.22 11.34 -9.8 10.92 -13.19 8.31 C-14 6 -14 6 -13.5 2.88 C-12 0 -12 0 -9.81 -1.5 C-6.01 -2.18 -3.56 -1.41 0 0 Z " fill="#FFFFFF" transform="translate(588,988)"/>
<path d="M0 0 C3.3 0.55 5.07 1.24 7.62 3.44 C8.44 7.12 8.44 7.12 8.62 10.44 C6.3 12.59 4.85 13.4 1.69 13.94 C-2.44 13.26 -3.9 11.74 -6.38 8.44 C-6.38 5.79 -5.41 4.49 -4.12 2.19 C-2.38 0.44 -2.38 0.44 0 0 Z " fill="#FFFFFF" transform="translate(1385.375,1192.5625)"/>
<path d="M0 0 C2.64 2.15 4.07 3.79 5.38 6.94 C5 9.19 5 9.19 3.38 10.94 C0.06 12.06 0.06 12.06 -3.62 11.94 C-6.62 9.31 -6.62 9.31 -8.62 5.94 C-8.75 3.19 -8.75 3.19 -7.62 0.94 C-4.6 -1.08 -3.4 -1.38 0 0 Z " fill="#FFFFFF" transform="translate(725.625,814.0625)"/>
<path d="M0 0 C2.29 2.21 2.94 3.46 3.31 6.62 C3 9 3 9 1 11 C-1.69 11.27 -4.29 11.09 -7 11 C-9.04 6.93 -9.03 4.41 -8 0 C-4.64 -1.12 -3.32 -1.08 0 0 Z " fill="#FFFFFF" transform="translate(175,1473)"/>
<path d="M0 0 C2.72 2.06 3.83 3.21 4.56 6.56 C4 9 4 9 1.75 10.94 C-1 12 -1 12 -3.06 11.44 C-5.27 9.8 -7.13 8 -9 6 C-8.4 3.98 -7.73 1.98 -7 0 C-4.23 -1.38 -2.93 -0.91 0 0 Z " fill="#FFFFFF" transform="translate(1241,1353)"/>
<path d="M0 0 C0.81 3.25 0.81 3.25 1 7 C-1.06 9.5 -1.06 9.5 -4 11 C-7.19 11.06 -7.19 11.06 -10 10 C-11.56 7.75 -11.56 7.75 -12 5 C-10.81 2.25 -10.81 2.25 -9 0 C-5.52 -1.16 -3.54 -0.71 0 0 Z " fill="#FFFFFF" transform="translate(842,139)"/>
<path d="M0 0 C2.09 3.4 2.18 6.05 2 10 C0.44 11.19 0.44 11.19 -2 12 C-5.69 10.94 -5.69 10.94 -9 9 C-10.06 6.5 -10.06 6.5 -10 4 C-7.16 -0.26 -4.81 -0.13 0 0 Z " fill="#FFFFFF" transform="translate(2853,624)"/>
<path d="M0 0 C1.88 1.56 1.88 1.56 3 3 C2.38 6.38 2.38 6.38 1 10 C-2.12 11.44 -2.12 11.44 -5 12 C-5 11.34 -5 10.68 -5 10 C-5.99 9.67 -6.98 9.34 -8 9 C-9.12 3.38 -9.12 3.38 -8 0 C-5.06 -1.47 -3.13 -0.77 0 0 Z " fill="#FFFFFF" transform="translate(2225,216)"/>
<path d="M0 0 C6.09 0.54 6.09 0.54 9 2 C8.74 7.32 8.74 7.32 8 10 C5.56 12.06 5.56 12.06 3 13 C2.34 12.67 1.68 12.34 1 12 C1 11.34 1 10.68 1 10 C0.01 9.67 -0.98 9.34 -2 9 C-2.12 5.62 -2.12 5.62 -2 2 C-1.34 1.34 -0.68 0.68 0 0 Z " fill="#FFFFFF" transform="translate(1544,899)"/>
<path d="M0 0 C3.69 1.38 3.69 1.38 7 3 C6.65 8.38 6.65 8.38 6 11 C3.48 13.02 2.25 13 -1 13 C-3.38 10.11 -4.02 8.58 -3.88 4.81 C-3 2 -3 2 0 0 Z " fill="#FFFFFF" transform="translate(500,1291)"/>
<path d="M0 0 C1.81 1.5 1.81 1.5 3 3 C1.38 8.75 1.38 8.75 -2 11 C-4.56 11.25 -4.56 11.25 -7 11 C-9 9 -9 9 -9.2 7.05 C-9.1 4.03 -9.1 4.03 -9 1 C-5.92 0.09 -3.21 -0.33 0 0 Z " fill="#FFFFFF" transform="translate(2076,1371)"/>
<path d="M0 0 C1.42 2.51 2 4.3 2 7.19 C1 9 1 9 -1.88 10.31 C-5 11 -5 11 -8 10 C-8 9.34 -8 8.68 -8 8 C-8.66 8 -9.32 8 -10 8 C-9.67 6.02 -9.34 4.04 -9 2 C-8.34 2 -7.68 2 -7 2 C-7 1.34 -7 0.68 -7 0 C-3.88 -1.04 -2.93 -1.32 0 0 Z " fill="#FFFFFF" transform="translate(1898,1152)"/>
<path d="M0 0 C2.31 0.66 4.62 1.32 7 2 C8.15 4.83 8.08 5.81 6.88 8.69 C5 11 5 11 2.56 12.06 C0 12 0 12 -2.31 10.06 C-2.87 9.38 -3.43 8.7 -4 8 C-2.25 2.25 -2.25 2.25 0 0 Z " fill="#FFFFFF" transform="translate(2060,157)"/>
<path d="M0 0 C2 0.94 2 0.94 3.44 3.69 C4 6.94 4 6.94 2.88 9.81 C1.95 10.86 1.95 10.86 1 11.94 C-3 11.94 -3 11.94 -5.75 9.44 C-6.49 8.61 -7.23 7.79 -8 6.94 C-3.5 -0.11 -3.5 -0.11 0 0 Z " fill="#FFFFFF" transform="translate(1938,101.0625)"/>
<path d="M0 0 C2.5 0.5 2.5 0.5 4.31 1.62 C6.05 4.37 5.9 6.32 5.5 9.5 C4.38 11.44 4.38 11.44 2.5 12.5 C-0.69 12.19 -0.69 12.19 -3.5 11.5 C-5.8 6.3 -5.8 6.3 -4.44 2.62 C-2.5 0.5 -2.5 0.5 0 0 Z " fill="#FFFFFF" transform="translate(354.5,1486.5)"/>
<path d="M0 0 C1.5 2.31 1.5 2.31 2 5 C1.23 7.71 0.39 8.71 -1.88 10.38 C-4 11 -4 11 -6.12 10.38 C-8.39 8.71 -9.23 7.71 -10 5 C-9.25 2.31 -9.25 2.31 -8 0 C-5.01 -1.49 -3.15 -0.92 0 0 Z " fill="#FFFFFF" transform="translate(1391,843)"/>
<path d="M0 0 C2.75 1.94 2.75 1.94 3.62 4.62 C3.69 5.77 3.69 5.77 3.75 6.94 C2.76 7.27 1.77 7.6 0.75 7.94 C0.75 8.6 0.75 9.26 0.75 9.94 C-2.75 9.62 -4.83 9.25 -7.69 7.12 C-9.25 4.94 -9.25 4.94 -9.31 2.81 C-8.25 0.94 -8.25 0.94 -6.06 -0.5 C-3.25 -1.06 -3.25 -1.06 0 0 Z " fill="#FFFFFF" transform="translate(2462.25,86.0625)"/>
<path d="M0 0 C3.19 0.88 3.19 0.88 6 2 C6.75 4.75 6.75 4.75 7 8 C5.38 10.44 5.38 10.44 3 12 C0.38 11.94 0.38 11.94 -2 11 C-4 8 -4 8 -3.81 4.94 C-3 2 -3 2 0 0 Z " fill="#FFFFFF" transform="translate(659,1231)"/>
<path d="M0 0 C0 0.66 0 1.32 0 2 C0.66 2 1.32 2 2 2 C2.81 4.91 3.22 6.46 2.06 9.31 C1.71 9.87 1.36 10.43 1 11 C-4.75 11.12 -4.75 11.12 -7 10 C-7.88 7.19 -7.88 7.19 -8 4 C-5.4 0.34 -4.61 0 0 0 Z " fill="#FFFFFF" transform="translate(2691,669)"/>
<path d="M0 0 C0.33 2.31 0.66 4.62 1 7 C0.34 7 -0.32 7 -1 7 C-1 7.66 -1 8.32 -1 9 C-6.62 9.25 -6.62 9.25 -10 7 C-10.43 4.18 -10.35 2.62 -8.94 0.12 C-5.88 -1.65 -3.34 -0.69 0 0 Z " fill="#FFFFFF" transform="translate(1878,993)"/>
<path d="M0 0 C1 1 1 1 1.25 3.38 C1 6 1 6 -0.12 7.81 C-2.78 9.49 -4.93 9.2 -8 9 C-10.12 3.38 -10.12 3.38 -9 0 C-5.91 -1.55 -3.32 -0.6 0 0 Z " fill="#FFFFFF" transform="translate(2079,1534)"/>
<path d="M0 0 C2.44 0.81 2.44 0.81 4.44 2.81 C3.98 8.27 3.98 8.27 1.44 10.81 C-1.86 10.48 -3.19 10.19 -5.56 7.81 C-5.93 4.94 -5.94 3.4 -4.38 0.94 C-2.56 -0.19 -2.56 -0.19 0 0 Z " fill="#FFFFFF" transform="translate(2056.5625,203.1875)"/>
<path d="M0 0 C0.76 0.21 1.53 0.41 2.31 0.62 C3.65 7.06 3.65 7.06 2.12 9.62 C0.31 10.62 0.31 10.62 -1.69 10.5 C-4.03 9.48 -5.25 8.75 -6.69 6.62 C-6.56 4.06 -6.56 4.06 -5.69 1.62 C-2.69 -0.38 -2.69 -0.38 0 0 Z " fill="#FFFFFF" transform="translate(1121.6875,365.375)"/>
<path d="M0 0 C0.99 2.31 1.98 4.62 3 7 C1.94 8.56 1.94 8.56 0 10 C-3.69 9.69 -3.69 9.69 -7 9 C-7.75 6.75 -7.75 6.75 -8 4 C-5.36 0.39 -4.61 0 0 0 Z " fill="#FFFFFF" transform="translate(673,571)"/>
<path d="M0 0 C0.69 1.75 0.69 1.75 1 4 C-0.06 6.25 -0.06 6.25 -2 8 C-5.12 8.31 -5.12 8.31 -8 8 C-9 7 -9 7 -9.06 3.44 C-9.04 2.3 -9.02 1.17 -9 0 C-5.52 -1.16 -3.54 -0.71 0 0 Z " fill="#FFFFFF" transform="translate(670,1546)"/>
<path d="M0 0 C2.94 0.19 2.94 0.19 3.94 1.19 C3.76 3.88 3.32 6.52 2.94 9.19 C-0.44 9.38 -0.44 9.38 -4.06 9.19 C-6.06 6.19 -6.06 6.19 -5.81 4.12 C-4.52 0.79 -3.57 0.22 0 0 Z " fill="#FFFFFF" transform="translate(2194.0625,890.8125)"/>
<path d="M0 0 C2.44 0.75 2.44 0.75 4.44 2.75 C4.12 6.04 2.89 7.62 0.44 9.75 C-1.54 9.09 -3.52 8.43 -5.56 7.75 C-5.75 4.88 -5.75 4.88 -5.56 1.75 C-2.56 -0.25 -2.56 -0.25 0 0 Z " fill="#FFFFFF" transform="translate(455.5625,727.25)"/>
<path d="M0 0 C2 1.19 2 1.19 4 3 C4.52 5.97 4.43 7.36 2.75 9.88 C1 11 1 11 -1.06 10.81 C-3 10 -3 10 -5 8 C-5.44 5.56 -5.44 5.56 -5 3 C-2.5 1.19 -2.5 1.19 0 0 Z " fill="#FFFFFF" transform="translate(1164,565)"/>
<path d="M0 0 C1.25 2.38 1.25 2.38 2 5 C1.67 5.99 1.34 6.98 1 8 C-1.31 8.33 -3.62 8.66 -6 9 C-8.12 4.38 -8.12 4.38 -7 1 C-4.06 -0.96 -3.48 -1.16 0 0 Z " fill="#FFFFFF" transform="translate(613,449)"/>
<path d="M0 0 C-0.33 2.31 -0.66 4.62 -1 7 C-3.31 7.62 -3.31 7.62 -6 8 C-6.99 7.34 -7.98 6.68 -9 6 C-8.62 3.06 -8.62 3.06 -8 0 C-5.14 -1.43 -3.07 -0.6 0 0 Z " fill="#FFFFFF" transform="translate(2226,761)"/>
<path d="M0 0 C4.88 0.88 4.88 0.88 6 2 C5.71 4.34 5.38 6.67 5 9 C3.02 9 1.04 9 -1 9 C-2.19 6.75 -2.19 6.75 -3 4 C-1.62 1.69 -1.62 1.69 0 0 Z " fill="#FFFFFF" transform="translate(980,1679)"/>
<path d="M0 0 C2.93 0.37 3.86 0.86 6 3 C5.88 5.5 5.88 5.5 5 8 C2.94 9.31 2.94 9.31 1 10 C-0.32 9.01 -1.64 8.02 -3 7 C-2.25 2.25 -2.25 2.25 0 0 Z " fill="#FFFFFF" transform="translate(672,872)"/>
<path d="M0 0 C2.38 0.25 2.38 0.25 5 1 C6.31 3.06 6.31 3.06 7 5 C6.01 6.32 5.02 7.64 4 9 C1.62 8.75 1.62 8.75 -1 8 C-2.31 5.94 -2.31 5.94 -3 4 C-2.01 2.68 -1.02 1.36 0 0 Z " fill="#FFFFFF" transform="translate(545,632)"/>
<path d="M0 0 C2.62 -0.38 2.62 -0.38 5 0 C6 1 6 1 6.31 3.88 C6 7 6 7 4 8.88 C3.01 9.43 3.01 9.43 2 10 C0.35 8.35 -1.3 6.7 -3 5 C-1.81 2.5 -1.81 2.5 0 0 Z " fill="#FFFFFF" transform="translate(2617,1129)"/>
<path d="M0 0 C2.44 0.94 2.44 0.94 3.75 3 C4.09 3.96 4.09 3.96 4.44 4.94 C3.12 6.26 1.8 7.58 0.44 8.94 C-2 8.19 -2 8.19 -4.56 6.94 C-5.56 5 -5.56 5 -5.56 2.94 C-3.92 0.29 -3.13 -0.08 0 0 Z " fill="#FFFFFF" transform="translate(992.5625,783.0625)"/>
<path d="M0 0 C2.88 0.25 2.88 0.25 6 1 C7.38 3.06 7.38 3.06 8 5 C6.31 7.06 6.31 7.06 4 9 C1.25 8.75 1.25 8.75 -1 8 C-2.21 4.38 -1.54 3.36 0 0 Z " fill="#FFFFFF" transform="translate(1393,508)"/>
<path d="M0 0 C2.34 0.29 4.67 0.62 7 1 C7.12 3.38 7.12 3.38 7 6 C6.34 6.66 5.68 7.32 5 8 C1.88 7.62 1.88 7.62 -1 7 C-1.04 5 -1.04 3 -1 1 C-0.67 0.67 -0.34 0.34 0 0 Z " fill="#FFFFFF" transform="translate(290,1482)"/>
<path d="M0 0 C2.38 0.25 2.38 0.25 5 1 C6.44 2.81 6.44 2.81 7 5 C6.12 7.25 6.12 7.25 5 9 C2.03 8.5 2.03 8.5 -1 8 C-1.62 5.69 -1.62 5.69 -2 3 C-1.34 2.01 -0.68 1.02 0 0 Z " fill="#FFFFFF" transform="translate(369,199)"/>
<path d="M0 0 C0.66 1.98 1.32 3.96 2 6 C1.34 6 0.68 6 0 6 C0 6.66 0 7.32 0 8 C-1.98 8 -3.96 8 -6 8 C-6.69 5.69 -6.69 5.69 -7 3 C-4.87 -0.25 -4.07 0 0 0 Z " fill="#FFFFFF" transform="translate(385,1039)"/>
<path d="M0 0 C2.88 -0.12 2.88 -0.12 6 0 C6.66 0.66 7.32 1.32 8 2 C7.62 4.62 7.62 4.62 7 7 C3.99 7.93 3.13 8.04 0 7 C0 4.69 0 2.38 0 0 Z " fill="#FFFFFF" transform="translate(1470,179)"/>
<path d="M0 0 C0.99 0 1.98 0 3 0 C4.69 2.5 4.69 2.5 6 5 C4.68 6.32 3.36 7.64 2 9 C-0.47 8.01 -0.47 8.01 -3 7 C-2.25 2.25 -2.25 2.25 0 0 Z " fill="#FFFFFF" transform="translate(2542,1329)"/>
<path d="M0 0 C0 1.65 0 3.3 0 5 C-1.75 6.12 -1.75 6.12 -4 7 C-6.25 6.12 -6.25 6.12 -8 5 C-7.62 2.56 -7.62 2.56 -7 0 C-4.33 -1.33 -2.83 -0.67 0 0 Z " fill="#FFFFFF" transform="translate(602,1577)"/>
<path d="M0 0 C1.32 1.32 2.64 2.64 4 4 C3.25 5.94 3.25 5.94 2 8 C0 8.81 0 8.81 -2 9 C-2.66 8.67 -3.32 8.34 -4 8 C-4.25 5.69 -4.25 5.69 -4 3 C-2 1.19 -2 1.19 0 0 Z " fill="#FFFFFF" transform="translate(2706,1212)"/>
<path d="M0 0 C0.6 0.21 1.2 0.41 1.81 0.62 C2.44 3 2.44 3 2.81 5.62 C2.15 6.28 1.49 6.95 0.81 7.62 C-2.31 7.25 -2.31 7.25 -5.19 6.62 C-5.38 4.25 -5.38 4.25 -5.19 1.62 C-2.19 -0.38 -2.19 -0.38 0 0 Z " fill="#FFFFFF" transform="translate(1297.1875,724.375)"/>
<path d="M0 0 C1.12 4.75 1.12 4.75 0 7 C-2.56 7.62 -2.56 7.62 -5 8 C-7 5 -7 5 -7 1 C-4.54 -0.23 -2.72 -0.07 0 0 Z " fill="#FFFFFF" transform="translate(1991,406)"/>
<path d="M0 0 C2.31 0.33 4.62 0.66 7 1 C6.67 3.31 6.34 5.62 6 8 C1.12 7.12 1.12 7.12 0 6 C-0.04 4 -0.04 2 0 0 Z " fill="#FFFFFF" transform="translate(956,1324)"/>
<path d="M0 0 C1.98 0 3.96 0 6 0 C6.33 1.98 6.66 3.96 7 6 C4.69 6.33 2.38 6.66 0 7 C-1.12 2.25 -1.12 2.25 0 0 Z " fill="#FFFFFF" transform="translate(2231,247)"/>
<path d="M0 0 C0 1.65 0 3.3 0 5 C-1.65 5.66 -3.3 6.32 -5 7 C-6.56 5.75 -6.56 5.75 -8 4 C-7.81 1.88 -7.81 1.88 -7 0 C-4.33 -1.33 -2.83 -0.67 0 0 Z " fill="#FFFFFF" transform="translate(2551,1555)"/>
<path d="M0 0 C1.98 0.66 3.96 1.32 6 2 C5.25 6.75 5.25 6.75 3 9 C0.52 8.01 0.52 8.01 -2 7 C-1.12 1.12 -1.12 1.12 0 0 Z " fill="#FFFFFF" transform="translate(711,1255)"/>
<path d="M0 0 C2.31 0.33 4.62 0.66 7 1 C6.67 2.98 6.34 4.96 6 7 C3 8 3 8 0.81 7.06 C0.21 6.71 -0.38 6.36 -1 6 C-0.67 4.02 -0.34 2.04 0 0 Z " fill="#FFFFFF" transform="translate(1438,865)"/>
<path d="M0 0 C0.33 1.98 0.66 3.96 1 6 C-1.31 6.33 -3.62 6.66 -6 7 C-6.33 5.02 -6.66 3.04 -7 1 C-3.38 -1.12 -3.38 -1.12 0 0 Z " fill="#FFFFFF" transform="translate(2747,658)"/>
<path d="M0 0 C0.9 0.34 0.9 0.34 1.81 0.69 C2.44 2.5 2.44 2.5 2.81 4.69 C1.82 6.17 1.82 6.17 0.81 7.69 C-0.84 7.36 -2.49 7.03 -4.19 6.69 C-4.88 4.88 -4.88 4.88 -5.19 2.69 C-3.58 0.24 -2.95 -0.42 0 0 Z " fill="#FFFFFF" transform="translate(481.1875,235.3125)"/>
<path d="M0 0 C1.98 0.99 3.96 1.98 6 3 C5.19 5.44 5.19 5.44 4 8 C3.01 8.33 2.02 8.66 1 9 C-1.19 7.56 -1.19 7.56 -3 6 C-1.12 1.12 -1.12 1.12 0 0 Z " fill="#FFFFFF" transform="translate(2491,27)"/>
<path d="M0 0 C2.01 0.29 4.01 0.62 6 1 C6.12 3.38 6.12 3.38 6 6 C5.34 6.66 4.68 7.32 4 8 C0.46 7.46 0.46 7.46 -1 6 C-1.12 3.5 -1.12 3.5 -1 1 C-0.67 0.67 -0.34 0.34 0 0 Z " fill="#FFFFFF" transform="translate(1111,1013)"/>
<path d="M0 0 C2.31 0.33 4.62 0.66 7 1 C6.34 3.31 5.68 5.62 5 8 C3.02 7.34 1.04 6.68 -1 6 C-0.67 4.02 -0.34 2.04 0 0 Z " fill="#FFFFFF" transform="translate(2113,181)"/>
<path d="M0 0 C2.38 -0.12 2.38 -0.12 5 0 C5.66 0.66 6.32 1.32 7 2 C6.62 4.62 6.62 4.62 6 7 C4.35 7.33 2.7 7.66 1 8 C0.27 6.02 -0.39 4.02 -1 2 C-0.67 1.34 -0.34 0.68 0 0 Z " fill="#FFFFFF" transform="translate(808,15)"/>
<path d="M0 0 C0 1.98 0 3.96 0 6 C-2.31 6 -4.62 6 -7 6 C-7 4.02 -7 2.04 -7 0 C-4.33 -1.33 -2.83 -0.67 0 0 Z " fill="#FFFFFF" transform="translate(2079,1480)"/>
<path d="M0 0 C1.94 0.81 1.94 0.81 4 2 C4.33 2.99 4.66 3.98 5 5 C3.75 6.5 3.75 6.5 2 8 C0.68 8 -0.64 8 -2 8 C-2.33 6.02 -2.66 4.04 -3 2 C-2.01 1.34 -1.02 0.68 0 0 Z " fill="#FFFFFF" transform="translate(331,941)"/>
<path d="M0 0 C1.88 0.75 1.88 0.75 2.88 1.75 C2.92 3.42 2.92 5.08 2.88 6.75 C-0.26 7.79 -1.11 7.68 -4.12 6.75 C-4.81 4.94 -4.81 4.94 -5.12 2.75 C-3.55 0.35 -2.9 -0.34 0 0 Z " fill="#FFFFFF" transform="translate(1459.125,290.25)"/>
<path d="M0 0 C2.01 0.29 4.01 0.62 6 1 C6.12 3.38 6.12 3.38 6 6 C5.34 6.66 4.68 7.32 4 8 C1.38 7.62 1.38 7.62 -1 7 C-1.04 5 -1.04 3 -1 1 C-0.67 0.67 -0.34 0.34 0 0 Z " fill="#FFFFFF" transform="translate(388,194)"/>
<path d="M0 0 C1.98 0.99 3.96 1.98 6 3 C5.34 4.65 4.68 6.3 4 8 C1.06 7.62 1.06 7.62 -2 7 C-2.33 6.34 -2.66 5.68 -3 5 C-1.56 2.38 -1.56 2.38 0 0 Z " fill="#FFFFFF" transform="translate(2928,993)"/>
<path d="M0 0 C1.68 0.29 3.34 0.62 5 1 C5.33 1.99 5.66 2.98 6 4 C4.71 5.38 3.37 6.71 2 8 C1.34 8 0.68 8 0 8 C-2 5 -2 5 -1.69 2.88 C-1 1 -1 1 0 0 Z " fill="#FFFFFF" transform="translate(2474,1243)"/>
<path d="M0 0 C0 2.31 0 4.62 0 7 C-1.98 7 -3.96 7 -6 7 C-6.33 5.02 -6.66 3.04 -7 1 C-4 0 -4 0 0 0 Z " fill="#FFFFFF" transform="translate(1882,1048)"/>
<path d="M0 0 C1.32 0.66 2.64 1.32 4 2 C4.04 3.67 4.04 5.33 4 7 C3 8 3 8 0.44 8.06 C-0.37 8.04 -1.17 8.02 -2 8 C-2.69 5.69 -2.69 5.69 -3 3 C-1.56 1.19 -1.56 1.19 0 0 Z " fill="#FFFFFF" transform="translate(1823,421)"/>
<path d="M0 0 C1.56 1.81 1.56 1.81 3 4 C2.67 4.99 2.34 5.98 2 7 C0.02 7.33 -1.96 7.66 -4 8 C-4.33 6.35 -4.66 4.7 -5 3 C-3.35 2.01 -1.7 1.02 0 0 Z " fill="#FFFFFF" transform="translate(2602,432)"/>
<path d="M0 0 C2.62 1.44 2.62 1.44 5 3 C4.67 4.32 4.34 5.64 4 7 C2.19 7.62 2.19 7.62 0 8 C-0.99 7.34 -1.98 6.68 -3 6 C-2.62 3.56 -2.62 3.56 -2 1 C-1.34 0.67 -0.68 0.34 0 0 Z " fill="#FFFFFF" transform="translate(2190,346)"/>
<path d="M0 0 C2 0.19 2 0.19 4 1 C4.66 1.99 5.32 2.98 6 4 C5.01 5.32 4.02 6.64 3 8 C0.53 7.01 0.53 7.01 -2 6 C-2 2 -2 2 0 0 Z " fill="#FFFFFF" transform="translate(2015,169)"/>
<path d="M0 0 C0.78 0.04 1.57 0.08 2.38 0.12 C2.42 2.12 2.42 4.13 2.38 6.12 C1.38 7.12 1.38 7.12 -1.19 7.19 C-2.39 7.16 -2.39 7.16 -3.62 7.12 C-4.25 4.75 -4.25 4.75 -4.62 2.12 C-2.62 0.12 -2.62 0.12 0 0 Z " fill="#FFFFFF" transform="translate(1046.625,1344.875)"/>
<path d="M0 0 C0.99 0.33 1.98 0.66 3 1 C3.33 2.65 3.66 4.3 4 6 C1 8 1 8 -1.19 7.62 C-1.79 7.42 -2.38 7.21 -3 7 C-3.33 5.68 -3.66 4.36 -4 3 C-2.19 1.44 -2.19 1.44 0 0 Z " fill="#FFFFFF" transform="translate(2731,953)"/>
<path d="M0 0 C2.01 0.29 4.01 0.62 6 1 C6 2.32 6 3.64 6 5 C4.19 6.06 4.19 6.06 2 7 C1.01 6.67 0.02 6.34 -1 6 C-1.04 4.33 -1.04 2.67 -1 1 C-0.67 0.67 -0.34 0.34 0 0 Z " fill="#FFFFFF" transform="translate(238,431)"/>
<path d="M0 0 C0.33 1.65 0.66 3.3 1 5 C0.34 5 -0.32 5 -1 5 C-1 5.66 -1 6.32 -1 7 C-2.65 7 -4.3 7 -6 7 C-6.33 5.35 -6.66 3.7 -7 2 C-4.35 0.54 -3.11 0 0 0 Z " fill="#FFFFFF" transform="translate(1969,320)"/>
<path d="M0 0 C2.47 0.99 2.47 0.99 5 2 C4.67 3.65 4.34 5.3 4 7 C2.68 7.33 1.36 7.66 0 8 C-1.12 5.69 -1.12 5.69 -2 3 C-1.34 2.01 -0.68 1.02 0 0 Z " fill="#FFFFFF" transform="translate(1203,1033)"/>
<path d="M0 0 C1.32 0.99 2.64 1.98 4 3 C3.75 4.88 3.75 4.88 3 7 C0.94 8.25 0.94 8.25 -1 9 C-3 6 -3 6 -2.75 3.94 C-2 2 -2 2 0 0 Z " fill="#FFFFFF" transform="translate(2201,400)"/>
<path d="M0 0 C0.62 0.27 1.24 0.54 1.88 0.81 C2.21 1.8 2.53 2.79 2.88 3.81 C1.88 5.3 1.88 5.3 0.88 6.81 C-0.77 6.48 -2.42 6.15 -4.12 5.81 C-4.46 4.49 -4.78 3.17 -5.12 1.81 C-2.12 -0.19 -2.12 -0.19 0 0 Z " fill="#FFFFFF" transform="translate(566.125,1660.1875)"/>
<path d="M0 0 C1.68 0.29 3.34 0.62 5 1 C5.33 1.99 5.66 2.98 6 4 C5.01 5.48 5.01 5.48 4 7 C2.35 6.67 0.7 6.34 -1 6 C-1.04 4.33 -1.04 2.67 -1 1 C-0.67 0.67 -0.34 0.34 0 0 Z " fill="#FFFFFF" transform="translate(2552,1453)"/>
<path d="M0 0 C1.65 0.33 3.3 0.66 5 1 C5.38 2.66 5.71 4.32 6 6 C5 7 5 7 2.44 7.06 C1.23 7.03 1.23 7.03 0 7 C-0.66 5.35 -1.32 3.7 -2 2 C-1.34 2 -0.68 2 0 2 C0 1.34 0 0.68 0 0 Z " fill="#FFFFFF" transform="translate(1957,557)"/>
<path d="M0 0 C2.06 0.19 2.06 0.19 4 1 C5 4 5 4 4.06 6.19 C3.54 7.08 3.54 7.08 3 8 C1.68 8 0.36 8 -1 8 C-1.62 5.12 -1.62 5.12 -2 2 C-1.34 1.34 -0.68 0.68 0 0 Z " fill="#FFFFFF" transform="translate(2962,307)"/>
<path d="M0 0 C2.19 0.31 2.19 0.31 4 1 C4.62 2.88 4.62 2.88 5 5 C4.34 5.66 3.68 6.32 3 7 C1 6.81 1 6.81 -1 6 C-1.66 5.01 -2.32 4.02 -3 3 C-1.75 1.44 -1.75 1.44 0 0 Z " fill="#FFFFFF" transform="translate(1128,533)"/>
<path d="M0 0 C1.32 0.66 2.64 1.32 4 2 C4 3.32 4 4.64 4 6 C2.02 6.33 0.04 6.66 -2 7 C-2.33 5.35 -2.66 3.7 -3 2 C-2.01 1.34 -1.02 0.68 0 0 Z " fill="#FFFFFF" transform="translate(452,462)"/>
<path d="M0 0 C1.56 1.25 1.56 1.25 3 3 C2.81 5.12 2.81 5.12 2 7 C1.01 7.5 1.01 7.5 0 8 C-2.12 7.06 -2.12 7.06 -4 6 C-3.67 4.35 -3.34 2.7 -3 1 C-2.01 0.67 -1.02 0.34 0 0 Z " fill="#FFFFFF" transform="translate(291,171)"/>
<path d="M0 0 C4.88 1.75 4.88 1.75 6 4 C5.01 5.49 5.01 5.49 4 7 C1.38 7.19 1.38 7.19 -1 7 C-1.62 5.19 -1.62 5.19 -2 3 C-1.34 2.01 -0.68 1.02 0 0 Z " fill="#FFFFFF" transform="translate(2970,924)"/>
<path d="M0 0 C2.47 0.99 2.47 0.99 5 2 C5 3.32 5 4.64 5 6 C3.02 6.33 1.04 6.66 -1 7 C-1.62 5.19 -1.62 5.19 -2 3 C-1.34 2.01 -0.68 1.02 0 0 Z " fill="#FFFFFF" transform="translate(2625,507)"/>
<path d="M0 0 C1.98 0 3.96 0 6 0 C6 1.98 6 3.96 6 6 C4.02 6 2.04 6 0 6 C0 4.02 0 2.04 0 0 Z " fill="#FFFFFF" transform="translate(665,1635)"/>
<path d="M0 0 C1.65 0.33 3.3 0.66 5 1 C5.33 2.32 5.66 3.64 6 5 C4.35 5.66 2.7 6.32 1 7 C-0.06 5.19 -0.06 5.19 -1 3 C-0.67 2.01 -0.34 1.02 0 0 Z " fill="#FFFFFF" transform="translate(2772,1020)"/>
<path d="M0 0 C2.06 0.25 2.06 0.25 4 1 C4.33 1.66 4.66 2.32 5 3 C4.67 3.99 4.34 4.98 4 6 C2.35 6.33 0.7 6.66 -1 7 C-1.62 4.62 -1.62 4.62 -2 2 C-1.34 1.34 -0.68 0.68 0 0 Z " fill="#FFFFFF" transform="translate(1763,350)"/>
<path d="M0 0 C1.65 0 3.3 0 5 0 C5.66 1.32 6.32 2.64 7 4 C4.53 5.49 4.53 5.49 2 7 C0.44 5.19 0.44 5.19 -1 3 C-0.67 2.01 -0.34 1.02 0 0 Z " fill="#FFFFFF" transform="translate(2246,462)"/>
<path d="M0 0 C1.32 1.32 2.64 2.64 4 4 C3.01 5.49 3.01 5.49 2 7 C0.35 6.67 -1.3 6.34 -3 6 C-3.33 5.01 -3.66 4.02 -4 3 C-2.68 2.01 -1.36 1.02 0 0 Z " fill="#FFFFFF" transform="translate(305,355)"/>
<path d="M0 0 C0.33 1.98 0.66 3.96 1 6 C-2.75 7.12 -2.75 7.12 -5 6 C-5 4.35 -5 2.7 -5 1 C-3 0 -3 0 0 0 Z " fill="#FFFFFF" transform="translate(2033,536)"/>
<path d="M0 0 C0.66 1.65 1.32 3.3 2 5 C-1 7 -1 7 -4 7 C-4.33 5.35 -4.66 3.7 -5 2 C-2 0 -2 0 0 0 Z " fill="#FFFFFF" transform="translate(631,492)"/>
<path d="M0 0 C1.98 0 3.96 0 6 0 C5.67 1.98 5.34 3.96 5 6 C2.03 5.5 2.03 5.5 -1 5 C-0.67 3.35 -0.34 1.7 0 0 Z " fill="#FFFFFF" transform="translate(2208,806)"/>
<path d="M0 0 C1.32 0.99 2.64 1.98 4 3 C3.34 4.32 2.68 5.64 2 7 C1.01 7 0.02 7 -1 7 C-1.66 5.68 -2.32 4.36 -3 3 C-2.01 2.01 -1.02 1.02 0 0 Z " fill="#FFFFFF" transform="translate(514,664)"/>
<path d="M0 0 C1.32 0 2.64 0 4 0 C4.33 1.65 4.66 3.3 5 5 C3.02 5.33 1.04 5.66 -1 6 C-1.62 4.12 -1.62 4.12 -2 2 C-1.34 1.34 -0.68 0.68 0 0 Z " fill="#FFFFFF" transform="translate(476,530)"/>
<path d="M0 0 C1.32 0.33 2.64 0.66 4 1 C4.33 2.32 4.66 3.64 5 5 C2.62 6.06 2.62 6.06 0 7 C-0.66 6.67 -1.32 6.34 -2 6 C-1.34 4.02 -0.68 2.04 0 0 Z " fill="#FFFFFF" transform="translate(2894,275)"/>
<path d="M0 0 C0.64 0.25 1.28 0.49 1.94 0.75 C2.27 1.74 2.6 2.73 2.94 3.75 C2.61 4.41 2.28 5.07 1.94 5.75 C0.62 5.75 -0.7 5.75 -2.06 5.75 C-2.72 4.1 -3.38 2.45 -4.06 0.75 C-2.06 -0.25 -2.06 -0.25 0 0 Z " fill="#FFFFFF" transform="translate(1526.0625,1534.25)"/>
<path d="M0 0 C1.32 0 2.64 0 4 0 C4.33 0.99 4.66 1.98 5 3 C4.01 4.49 4.01 4.49 3 6 C1.06 5.62 1.06 5.62 -1 5 C-1.33 4.34 -1.66 3.68 -2 3 C-1.34 2.01 -0.68 1.02 0 0 Z " fill="#FFFFFF" transform="translate(451,405)"/>
<path d="M0 0 C1.68 0.29 3.34 0.62 5 1 C4.67 2.32 4.34 3.64 4 5 C2.68 5 1.36 5 0 5 C-0.56 3.06 -0.56 3.06 -1 1 C-0.67 0.67 -0.34 0.34 0 0 Z " fill="#FFFFFF" transform="translate(1471,1570)"/>
<path d="M0 0 C1.32 1.32 2.64 2.64 4 4 C2.68 4.99 1.36 5.98 0 7 C-0.99 6.34 -1.98 5.68 -3 5 C-1.12 1.12 -1.12 1.12 0 0 Z " fill="#FFFFFF" transform="translate(2677,1184)"/>
<path d="M0 0 C1.32 0 2.64 0 4 0 C4 1.65 4 3.3 4 5 C3.01 5.49 3.01 5.49 2 6 C-0.12 5.06 -0.12 5.06 -2 4 C-1.34 2.68 -0.68 1.36 0 0 Z " fill="#FFFFFF" transform="translate(1574,1692)"/>
<path d="M0 0 C1.68 0.29 3.34 0.62 5 1 C5 2.32 5 3.64 5 5 C3.35 5 1.7 5 0 5 C-0.56 3.06 -0.56 3.06 -1 1 C-0.67 0.67 -0.34 0.34 0 0 Z " fill="#FFFFFF" transform="translate(1522,1502)"/>
<path d="M0 0 C1.65 0.33 3.3 0.66 5 1 C4.67 2.32 4.34 3.64 4 5 C2.35 5 0.7 5 -1 5 C-0.67 3.35 -0.34 1.7 0 0 Z " fill="#FFFFFF" transform="translate(1015,1338)"/>
<path d="M0 0 C2.47 0.5 2.47 0.5 5 1 C5.33 1.99 5.66 2.98 6 4 C4.35 4.66 2.7 5.32 1 6 C0 5 0 5 -0.06 2.44 C-0.04 1.63 -0.02 0.83 0 0 Z " fill="#FFFFFF" transform="translate(1970,350)"/>
<path d="M0 0 C1.68 0.29 3.34 0.62 5 1 C4.34 2.65 3.68 4.3 3 6 C2.01 5.67 1.02 5.34 0 5 C-0.75 3 -0.75 3 -1 1 C-0.67 0.67 -0.34 0.34 0 0 Z " fill="#FFFFFF" transform="translate(575,1633)"/>
<path d="M0 0 C2.47 0.99 2.47 0.99 5 2 C4.67 3.32 4.34 4.64 4 6 C2.35 5.67 0.7 5.34 -1 5 C-0.67 3.35 -0.34 1.7 0 0 Z " fill="#FFFFFF" transform="translate(1309,687)"/>
<path d="M0 0 C2.47 0.99 2.47 0.99 5 2 C4.67 2.99 4.34 3.98 4 5 C1.94 5.69 1.94 5.69 0 6 C-1.12 2.25 -1.12 2.25 0 0 Z " fill="#FFFFFF" transform="translate(1172,1026)"/>
<path d="M0 0 C1.32 0.66 2.64 1.32 4 2 C3.67 3.32 3.34 4.64 3 6 C1.06 5.62 1.06 5.62 -1 5 C-1.33 4.34 -1.66 3.68 -2 3 C-1.34 2.01 -0.68 1.02 0 0 Z " fill="#FFFFFF" transform="translate(2631,171)"/>
<path d="M0 0 C0.99 0.33 1.98 0.66 3 1 C3.33 1.99 3.66 2.98 4 4 C2.02 4.99 2.02 4.99 0 6 C-0.66 5.34 -1.32 4.68 -2 4 C-2 3.01 -2 2.02 -2 1 C-1.34 0.67 -0.68 0.34 0 0 Z " fill="#FFFFFF" transform="translate(2760,998)"/>
<path d="M0 0 C1.94 0.38 1.94 0.38 4 1 C4.33 1.66 4.66 2.32 5 3 C4.01 3.99 3.02 4.98 2 6 C1.01 5.34 0.02 4.68 -1 4 C-0.67 2.68 -0.34 1.36 0 0 Z " fill="#FFFFFF" transform="translate(2955,948)"/>
<path d="M0 0 C1.32 1.32 2.64 2.64 4 4 C3.34 4.66 2.68 5.32 2 6 C-0.12 5.62 -0.12 5.62 -2 5 C-1.12 1.12 -1.12 1.12 0 0 Z " fill="#FFFFFF" transform="translate(2233,441)"/>
<path d="M0 0 C1.98 0.5 1.98 0.5 4 1 C3.67 2.65 3.34 4.3 3 6 C1.68 5.67 0.36 5.34 -1 5 C-0.67 3.35 -0.34 1.7 0 0 Z " fill="#FFFFFF" transform="translate(442,223)"/>
<path d="M0 0 C1.98 0.49 1.98 0.49 4 1 C4 2.32 4 3.64 4 5 C2.35 5 0.7 5 -1 5 C-0.67 3.35 -0.34 1.7 0 0 Z " fill="#FFFFFF" transform="translate(1533,1559)"/>
<path d="M0 0 C0.99 0.33 1.98 0.66 3 1 C3.33 1.99 3.66 2.98 4 4 C2.02 4.99 2.02 4.99 0 6 C-0.66 4.68 -1.32 3.36 -2 2 C-1.34 1.34 -0.68 0.68 0 0 Z " fill="#FFFFFF" transform="translate(2497,1274)"/>
<path d="M0 0 C0.99 0.99 1.98 1.98 3 3 C1.62 4.5 1.62 4.5 0 6 C-0.66 6 -1.32 6 -2 6 C-2.33 4.68 -2.66 3.36 -3 2 C-2.01 1.34 -1.02 0.68 0 0 Z " fill="#FFFFFF" transform="translate(348,976)"/>
<path d="M0 0 C0.99 0.66 1.98 1.32 3 2 C2.67 3.32 2.34 4.64 2 6 C0.68 5.67 -0.64 5.34 -2 5 C-1.12 1.12 -1.12 1.12 0 0 Z " fill="#FFFFFF" transform="translate(2597,560)"/>
<path d="M0 0 C0.33 1.32 0.66 2.64 1 4 C-0.65 4.33 -2.3 4.66 -4 5 C-4.33 3.68 -4.66 2.36 -5 1 C-3 0 -3 0 0 0 Z " fill="#FFFFFF" transform="translate(2621,483)"/>
<path d="M0 0 C1.32 0 2.64 0 4 0 C4 1.65 4 3.3 4 5 C2.35 4.67 0.7 4.34 -1 4 C-0.67 2.68 -0.34 1.36 0 0 Z " fill="#FFFFFF" transform="translate(1463,254)"/>
<path d="M0 0 C0.99 0.66 1.98 1.32 3 2 C2.34 3.32 1.68 4.64 1 6 C-0.32 5.34 -1.64 4.68 -3 4 C-2.67 3.01 -2.34 2.02 -2 1 C-1.34 0.67 -0.68 0.34 0 0 Z " fill="#FFFFFF" transform="translate(2602,220)"/>
<path d="M0 0 C1.32 0.66 2.64 1.32 4 2 C3.67 2.99 3.34 3.98 3 5 C2.01 5.33 1.02 5.66 0 6 C-0.66 4.68 -1.32 3.36 -2 2 C-1.34 1.34 -0.68 0.68 0 0 Z " fill="#FFFFFF" transform="translate(2640,196)"/>
<path d="M0 0 C0.99 0.33 1.98 0.66 3 1 C3.69 3.06 3.69 3.06 4 5 C2.68 5.33 1.36 5.66 0 6 C-0.38 4.34 -0.71 2.68 -1 1 C-0.67 0.67 -0.34 0.34 0 0 Z " fill="#FFFFFF" transform="translate(2423,747)"/>
<path d="M0 0 C0.66 0.33 1.32 0.66 2 1 C2 2.32 2 3.64 2 5 C0.68 5.33 -0.64 5.66 -2 6 C-2.33 4.35 -2.66 2.7 -3 1 C-2.01 0.67 -1.02 0.34 0 0 Z " fill="#FFFFFF" transform="translate(2007,543)"/>
<path d="M0 0 C1.98 0.5 1.98 0.5 4 1 C3.34 2.65 2.68 4.3 2 6 C1.01 5.67 0.02 5.34 -1 5 C-0.67 3.35 -0.34 1.7 0 0 Z " fill="#FFFFFF" transform="translate(500,438)"/>
<path d="M0 0 C1.98 0.5 1.98 0.5 4 1 C3.67 2.65 3.34 4.3 3 6 C1.68 5.34 0.36 4.68 -1 4 C-0.67 2.68 -0.34 1.36 0 0 Z " fill="#FFFFFF" transform="translate(2205,314)"/>
<path d="M0 0 C1.65 0.33 3.3 0.66 5 1 C4.34 2.32 3.68 3.64 3 5 C1.68 4.67 0.36 4.34 -1 4 C-0.67 2.68 -0.34 1.36 0 0 Z " fill="#FFFFFF" transform="translate(2916,288)"/>
<path d="M0 0 C1.65 0.33 3.3 0.66 5 1 C4.34 2.32 3.68 3.64 3 5 C1.68 4.67 0.36 4.34 -1 4 C-0.67 2.68 -0.34 1.36 0 0 Z " fill="#FFFFFF" transform="translate(2632,23)"/>
<path d="M0 0 C1.98 0.5 1.98 0.5 4 1 C3.67 2.32 3.34 3.64 3 5 C1.68 4.67 0.36 4.34 -1 4 C-0.67 2.68 -0.34 1.36 0 0 Z " fill="#FFFFFF" transform="translate(776,238)"/>
<path d="M0 0 C0.66 0 1.32 0 2 0 C2.33 1.65 2.66 3.3 3 5 C1.35 4.67 -0.3 4.34 -2 4 C-1.34 2.68 -0.68 1.36 0 0 Z " fill="#FFFFFF" transform="translate(2432,1167)"/>
<path d="M0 0 C1.98 0.5 1.98 0.5 4 1 C3.67 2.32 3.34 3.64 3 5 C1.68 4.67 0.36 4.34 -1 4 C-0.67 2.68 -0.34 1.36 0 0 Z " fill="#FFFFFF" transform="translate(1037,895)"/>
<path d="M0 0 C0.99 0.66 1.98 1.32 3 2 C2.34 3.32 1.68 4.64 1 6 C0.01 5.34 -0.98 4.68 -2 4 C-2 3.01 -2 2.02 -2 1 C-1.34 0.67 -0.68 0.34 0 0 Z " fill="#FFFFFF" transform="translate(159,532)"/>
<path d="M0 0 C0.99 0.33 1.98 0.66 3 1 C2.67 2.32 2.34 3.64 2 5 C1.01 5 0.02 5 -1 5 C-1.33 3.68 -1.66 2.36 -2 1 C-1.34 0.67 -0.68 0.34 0 0 Z " fill="#FFFFFF" transform="translate(469,508)"/>
<path d="M0 0 C0.99 0.33 1.98 0.66 3 1 C2.67 2.32 2.34 3.64 2 5 C0.68 4.67 -0.64 4.34 -2 4 C-2 3.01 -2 2.02 -2 1 C-1.34 0.67 -0.68 0.34 0 0 Z " fill="#FFFFFF" transform="translate(1783,376)"/>
<path d="M0 0 C2.47 0.49 2.47 0.49 5 1 C5 1.99 5 2.98 5 4 C4.01 4.33 3.02 4.66 2 5 C1.34 4.34 0.68 3.68 0 3 C0 2.01 0 1.02 0 0 Z " fill="#FFFFFF" transform="translate(1588,1651)"/>
<path d="M0 0 C1.32 0 2.64 0 4 0 C4 1.32 4 2.64 4 4 C2.35 3.67 0.7 3.34 -1 3 C-0.67 2.01 -0.34 1.02 0 0 Z " fill="#FFFFFF" transform="translate(407,1006)"/>
<path d="M0 0 C0.99 0.33 1.98 0.66 3 1 C2.67 2.32 2.34 3.64 2 5 C0.68 4.67 -0.64 4.34 -2 4 C-1.34 2.68 -0.68 1.36 0 0 Z " fill="#FFFFFF" transform="translate(2569,534)"/>
<path d="M0 0 C0.99 0 1.98 0 3 0 C3.33 1.32 3.66 2.64 4 4 C2.68 4.33 1.36 4.66 0 5 C-0.56 3.06 -0.56 3.06 -1 1 C-0.67 0.67 -0.34 0.34 0 0 Z " fill="#FFFFFF" transform="translate(862,279)"/>
<path d="M0 0 C1.65 0 3.3 0 5 0 C4.67 1.32 4.34 2.64 4 4 C2.68 4 1.36 4 0 4 C0 2.68 0 1.36 0 0 Z " fill="#FFFFFF" transform="translate(322,182)"/>
<path d="M0 0 C1.32 0 2.64 0 4 0 C4 1.32 4 2.64 4 4 C2.35 4 0.7 4 -1 4 C-0.67 2.68 -0.34 1.36 0 0 Z " fill="#FFFFFF" transform="translate(2549,1489)"/>
<path d="M0 0 C0.99 0.99 1.98 1.98 3 3 C2.01 3.99 1.02 4.98 0 6 C-0.66 4.68 -1.32 3.36 -2 2 C-1.34 1.34 -0.68 0.68 0 0 Z " fill="#FFFFFF" transform="translate(282,381)"/>
<path d="M0 0 C1.32 0 2.64 0 4 0 C4 1.32 4 2.64 4 4 C2.35 3.67 0.7 3.34 -1 3 C-0.67 2.01 -0.34 1.02 0 0 Z " fill="#FFFFFF" transform="translate(757,287)"/>
<path d="M0 0 C1.32 0.66 2.64 1.32 4 2 C3.67 2.99 3.34 3.98 3 5 C1.68 4.34 0.36 3.68 -1 3 C-0.67 2.01 -0.34 1.02 0 0 Z " fill="#FFFFFF" transform="translate(1217,16)"/>
<path d="M0 0 C1.32 0.66 2.64 1.32 4 2 C3.01 2.99 2.02 3.98 1 5 C0.34 4.67 -0.32 4.34 -1 4 C-0.67 2.68 -0.34 1.36 0 0 Z " fill="#FFFFFF" transform="translate(1490,1559)"/>
<path d="M0 0 C0.99 0 1.98 0 3 0 C3.33 1.32 3.66 2.64 4 4 C2.35 4 0.7 4 -1 4 C-0.67 2.68 -0.34 1.36 0 0 Z " fill="#FFFFFF" transform="translate(2472,730)"/>
<path d="M0 0 C0.99 0.66 1.98 1.32 3 2 C2.67 2.99 2.34 3.98 2 5 C0.68 4.67 -0.64 4.34 -2 4 C-1.34 2.68 -0.68 1.36 0 0 Z " fill="#FFFFFF" transform="translate(195,496)"/>
<path d="M0 0 C0.66 0 1.32 0 2 0 C2.33 1.32 2.66 2.64 3 4 C1.68 4.33 0.36 4.66 -1 5 C-1 1 -1 1 0 0 Z " fill="#FFFFFF" transform="translate(2619,166)"/>
<path d="M0 0 C0.99 0.99 1.98 1.98 3 3 C1.02 3.99 1.02 3.99 -1 5 C-1.33 3.68 -1.66 2.36 -2 1 C-1.34 0.67 -0.68 0.34 0 0 Z " fill="#FFFFFF" transform="translate(827,1592)"/>
<path d="M0 0 C1.32 0.33 2.64 0.66 4 1 C4 1.99 4 2.98 4 4 C2.68 4 1.36 4 0 4 C0 2.68 0 1.36 0 0 Z " fill="#FFFFFF" transform="translate(2489,1020)"/>
<path d="M0 0 C1.32 0 2.64 0 4 0 C3.67 1.32 3.34 2.64 3 4 C2.01 4 1.02 4 0 4 C0 2.68 0 1.36 0 0 Z " fill="#FFFFFF" transform="translate(411,959)"/>
<path d="M0 0 C1.32 0 2.64 0 4 0 C4 1.32 4 2.64 4 4 C2.68 3.67 1.36 3.34 0 3 C0 2.01 0 1.02 0 0 Z " fill="#FFFFFF" transform="translate(2659,305)"/>
<path d="M0 0 C1.48 0.99 1.48 0.99 3 2 C2.67 2.99 2.34 3.98 2 5 C1.01 5 0.02 5 -1 5 C-0.67 3.35 -0.34 1.7 0 0 Z " fill="#FFFFFF" transform="translate(1563,90)"/>
<path d="M0 0 C1.32 0 2.64 0 4 0 C3.67 1.32 3.34 2.64 3 4 C2.01 3.67 1.02 3.34 0 3 C0 2.01 0 1.02 0 0 Z " fill="#FFFFFF" transform="translate(2471,1189)"/>
<path d="M0 0 C0.99 0.33 1.98 0.66 3 1 C2.67 2.32 2.34 3.64 2 5 C1.01 4.67 0.02 4.34 -1 4 C-0.67 2.68 -0.34 1.36 0 0 Z " fill="#FFFFFF" transform="translate(484,427)"/>
<path d="M0 0 C0.99 0.33 1.98 0.66 3 1 C3 1.99 3 2.98 3 4 C1.68 4 0.36 4 -1 4 C-0.67 2.68 -0.34 1.36 0 0 Z " fill="#FFFFFF" transform="translate(907,258)"/>
<path d="M0 0 C1.32 0.33 2.64 0.66 4 1 C4 1.99 4 2.98 4 4 C3.01 4 2.02 4 1 4 C0.67 2.68 0.34 1.36 0 0 Z " fill="#FFFFFF" transform="translate(1228,8)"/>
<path d="M0 0 C1.32 0.33 2.64 0.66 4 1 C4 1.99 4 2.98 4 4 C2.68 3.67 1.36 3.34 0 3 C0 2.01 0 1.02 0 0 Z " fill="#FFFFFF" transform="translate(1583,1665)"/>
<path d="M0 0 C0.99 0 1.98 0 3 0 C2.67 1.65 2.34 3.3 2 5 C1.34 4.67 0.68 4.34 0 4 C0 2.68 0 1.36 0 0 Z " fill="#FFFFFF" transform="translate(2510,1016)"/>
<path d="M0 0 C1.32 0.66 2.64 1.32 4 2 C3.67 2.66 3.34 3.32 3 4 C1.68 3.67 0.36 3.34 -1 3 C-0.67 2.01 -0.34 1.02 0 0 Z " fill="#FFFFFF" transform="translate(1124,641)"/>
<path d="M0 0 C0.99 0 1.98 0 3 0 C2.67 1.32 2.34 2.64 2 4 C1.01 4 0.02 4 -1 4 C-0.67 2.68 -0.34 1.36 0 0 Z " fill="#FFFFFF" transform="translate(2578,544)"/>
<path d="M0 0 C1.32 0 2.64 0 4 0 C4 1.32 4 2.64 4 4 C1.53 3.01 1.53 3.01 -1 2 C-0.67 1.34 -0.34 0.68 0 0 Z " fill="#FFFFFF" transform="translate(95,523)"/>
<path d="M0 0 C1.32 0.66 2.64 1.32 4 2 C3.67 2.66 3.34 3.32 3 4 C1.68 3.67 0.36 3.34 -1 3 C-0.67 2.01 -0.34 1.02 0 0 Z " fill="#FFFFFF" transform="translate(2611,205)"/>
<path d="M0 0 C0.99 0.99 1.98 1.98 3 3 C1.68 3.33 0.36 3.66 -1 4 C-1.33 3.01 -1.66 2.02 -2 1 C-1.34 0.67 -0.68 0.34 0 0 Z " fill="#FFFFFF" transform="translate(2291,199)"/>
<path d="M0 0 C0.99 0.33 1.98 0.66 3 1 C2.01 2.49 2.01 2.49 1 4 C0.01 3.67 -0.98 3.34 -2 3 C-2 2.34 -2 1.68 -2 1 C-1.34 0.67 -0.68 0.34 0 0 Z " fill="#FFFFFF" transform="translate(2626,177)"/>
<path d="M0 0 C0.66 0 1.32 0 2 0 C2.33 0.99 2.66 1.98 3 3 C1.35 3.33 -0.3 3.66 -2 4 C-1.34 2.68 -0.68 1.36 0 0 Z " fill="#FFFFFF" transform="translate(1553,73)"/>
<path d="M0 0 C1.32 0 2.64 0 4 0 C3.67 1.32 3.34 2.64 3 4 C2.34 4 1.68 4 1 4 C0.67 2.68 0.34 1.36 0 0 Z " fill="#FFFFFF" transform="translate(1529,1541)"/>
<path d="M0 0 C0.99 0.33 1.98 0.66 3 1 C2.67 1.99 2.34 2.98 2 4 C1.01 4 0.02 4 -1 4 C-0.67 2.68 -0.34 1.36 0 0 Z " fill="#FFFFFF" transform="translate(2912,1184)"/>
<path d="M0 0 C0.99 0 1.98 0 3 0 C2.67 1.32 2.34 2.64 2 4 C1.01 4 0.02 4 -1 4 C-0.67 2.68 -0.34 1.36 0 0 Z " fill="#FFFFFF" transform="translate(1056,899)"/>
<path d="M0 0 C0.66 0 1.32 0 2 0 C2 1.65 2 3.3 2 5 C1.34 5 0.68 5 0 5 C-0.56 3.06 -0.56 3.06 -1 1 C-0.67 0.67 -0.34 0.34 0 0 Z " fill="#FFFFFF" transform="translate(2643,307)"/>
<path d="M0 0 C0.66 0.33 1.32 0.66 2 1 C1.67 2.32 1.34 3.64 1 5 C0.01 4.01 -0.98 3.02 -2 2 C-1.34 1.34 -0.68 0.68 0 0 Z " fill="#FFFFFF" transform="translate(1295,227)"/>
<path d="M0 0 C0.99 0.33 1.98 0.66 3 1 C3 1.99 3 2.98 3 4 C2.01 4 1.02 4 0 4 C0 2.68 0 1.36 0 0 Z " fill="#FFFFFF" transform="translate(537,1576)"/>
<path d="M0 0 C0.66 0.99 1.32 1.98 2 3 C0.68 3.33 -0.64 3.66 -2 4 C-2 3.01 -2 2.02 -2 1 C-1.34 0.67 -0.68 0.34 0 0 Z " fill="#FFFFFF" transform="translate(2400,1145)"/>
<path d="M0 0 C0.99 0 1.98 0 3 0 C3.33 0.99 3.66 1.98 4 3 C3.01 3.33 2.02 3.66 1 4 C0.67 2.68 0.34 1.36 0 0 Z " fill="#FFFFFF" transform="translate(2455,736)"/>
<path d="M0 0 C1.32 0 2.64 0 4 0 C3.67 0.99 3.34 1.98 3 3 C2.01 3 1.02 3 0 3 C0 2.01 0 1.02 0 0 Z " fill="#FFFFFF" transform="translate(1180,499)"/>
<path d="M0 0 C1.98 0.99 1.98 0.99 4 2 C3.67 2.66 3.34 3.32 3 4 C2.01 3.67 1.02 3.34 0 3 C0 2.01 0 1.02 0 0 Z " fill="#FFFFFF" transform="translate(764,271)"/>
<path d="M0 0 C1.32 0.33 2.64 0.66 4 1 C4 1.66 4 2.32 4 3 C2.68 3 1.36 3 0 3 C0 2.01 0 1.02 0 0 Z " fill="#FFFFFF" transform="translate(1122,101)"/>
<path d="M0 0 C0.99 0.33 1.98 0.66 3 1 C3 1.99 3 2.98 3 4 C2.01 3.67 1.02 3.34 0 3 C0 2.01 0 1.02 0 0 Z " fill="#FFFFFF" transform="translate(2503,1017)"/>
<path d="M0 0 C0.66 0.33 1.32 0.66 2 1 C2 1.99 2 2.98 2 4 C1.01 4 0.02 4 -1 4 C-0.67 2.68 -0.34 1.36 0 0 Z " fill="#FFFFFF" transform="translate(1050,897)"/>
<path d="M0 0 C0.99 0.33 1.98 0.66 3 1 C2.67 1.99 2.34 2.98 2 4 C1.01 3.01 0.02 2.02 -1 1 C-0.67 0.67 -0.34 0.34 0 0 Z " fill="#FFFFFF" transform="translate(1114,661)"/>
<path d="M0 0 C0.99 0.33 1.98 0.66 3 1 C2.67 1.99 2.34 2.98 2 4 C1.01 3.34 0.02 2.68 -1 2 C-0.67 1.34 -0.34 0.68 0 0 Z " fill="#FFFFFF" transform="translate(2588,510)"/>
<path d="M0 0 C0.66 0.33 1.32 0.66 2 1 C1.67 1.99 1.34 2.98 1 4 C0.01 3.67 -0.98 3.34 -2 3 C-1.34 2.01 -0.68 1.02 0 0 Z " fill="#FFFFFF" transform="translate(183,508)"/>
<path d="M0 0 C0.66 1.32 1.32 2.64 2 4 C1.01 4.49 1.01 4.49 0 5 C-0.56 3.06 -0.56 3.06 -1 1 C-0.67 0.67 -0.34 0.34 0 0 Z " fill="#FFFFFF" transform="translate(844,1581)"/>
<path d="M0 0 C0.99 0 1.98 0 3 0 C3 0.99 3 1.98 3 3 C2.01 3 1.02 3 0 3 C0 2.01 0 1.02 0 0 Z " fill="#FFFFFF" transform="translate(2392,1124)"/>
<path d="M0 0 C0.99 0.33 1.98 0.66 3 1 C2.34 1.66 1.68 2.32 1 3 C0.01 2.67 -0.98 2.34 -2 2 C-1.34 1.34 -0.68 0.68 0 0 Z " fill="#FFFFFF" transform="translate(1054,1094)"/>
<path d="M0 0 C0.99 0 1.98 0 3 0 C3 0.99 3 1.98 3 3 C2.01 3 1.02 3 0 3 C0 2.01 0 1.02 0 0 Z " fill="#FFFFFF" transform="translate(410,975)"/>
<path d="M0 0 C0.66 0 1.32 0 2 0 C1.67 1.32 1.34 2.64 1 4 C0.34 3.67 -0.32 3.34 -1 3 C-0.67 2.01 -0.34 1.02 0 0 Z " fill="#FFFFFF" transform="translate(2772,629)"/>
<path d="M0 0 C0.99 0 1.98 0 3 0 C3 0.99 3 1.98 3 3 C2.01 3 1.02 3 0 3 C0 2.01 0 1.02 0 0 Z " fill="#FFFFFF" transform="translate(2658,453)"/>
<path d="M0 0 C0.66 0 1.32 0 2 0 C2.33 0.99 2.66 1.98 3 3 C2.01 3.33 1.02 3.66 0 4 C-0.33 3.01 -0.66 2.02 -1 1 C-0.67 0.67 -0.34 0.34 0 0 Z " fill="#FFFFFF" transform="translate(892,265)"/>
<path d="M0 0 C0.99 0.33 1.98 0.66 3 1 C3 1.66 3 2.32 3 3 C1.68 2.34 0.36 1.68 -1 1 C-0.67 0.67 -0.34 0.34 0 0 Z " fill="#FFFFFF" transform="translate(2904,1197)"/>
<path d="M0 0 C0.66 0 1.32 0 2 0 C2 0.99 2 1.98 2 3 C1.01 3 0.02 3 -1 3 C-0.67 2.01 -0.34 1.02 0 0 Z " fill="#FFFFFF" transform="translate(2459,1182)"/>
<path d="M0 0 C0.66 0 1.32 0 2 0 C2.33 0.99 2.66 1.98 3 3 C1.68 2.67 0.36 2.34 -1 2 C-0.67 1.34 -0.34 0.68 0 0 Z " fill="#FFFFFF" transform="translate(847,1047)"/>
<path d="M0 0 C0.66 0 1.32 0 2 0 C1.67 1.32 1.34 2.64 1 4 C0.34 3.34 -0.32 2.68 -1 2 C-0.67 1.34 -0.34 0.68 0 0 Z " fill="#FFFFFF" transform="translate(2791,613)"/>
<path d="M0 0 C1.32 0 2.64 0 4 0 C4 0.66 4 1.32 4 2 C2.68 2 1.36 2 0 2 C0 1.34 0 0.68 0 0 Z " fill="#FFFFFF" transform="translate(1179,508)"/>
<path d="M0 0 C0.99 0 1.98 0 3 0 C2.67 0.99 2.34 1.98 2 3 C1.01 2.67 0.02 2.34 -1 2 C-0.67 1.34 -0.34 0.68 0 0 Z " fill="#FFFFFF" transform="translate(2841,351)"/>
<path d="M0 0 C0.66 0 1.32 0 2 0 C2 1.32 2 2.64 2 4 C1.34 4 0.68 4 0 4 C0 2.68 0 1.36 0 0 Z " fill="#FFFFFF" transform="translate(2649,307)"/>
<path d="M0 0 C0.99 0.33 1.98 0.66 3 1 C2.67 1.66 2.34 2.32 2 3 C1.01 2.67 0.02 2.34 -1 2 C-0.67 1.34 -0.34 0.68 0 0 Z " fill="#FFFFFF" transform="translate(1312,246)"/>
<path d="M0 0 C0.99 0.33 1.98 0.66 3 1 C2.67 1.99 2.34 2.98 2 4 C1.34 2.68 0.68 1.36 0 0 Z " fill="#FFFFFF" transform="translate(2278,207)"/>
<path d="M0 0 C0.99 0 1.98 0 3 0 C2.67 0.99 2.34 1.98 2 3 C1.34 3 0.68 3 0 3 C0 2.01 0 1.02 0 0 Z " fill="#FFFFFF" transform="translate(1097,104)"/>
<path d="M0 0 C1.48 0.99 1.48 0.99 3 2 C1.68 2 0.36 2 -1 2 C-0.67 1.34 -0.34 0.68 0 0 Z " fill="#FFFFFF" transform="translate(1118,655)"/>
<path d="M0 0 C0.99 0.33 1.98 0.66 3 1 C2.67 1.66 2.34 2.32 2 3 C1.34 3 0.68 3 0 3 C0 2.01 0 1.02 0 0 Z " fill="#FFFFFF" transform="translate(90,524)"/>
<path d="M0 0 C0.99 0.33 1.98 0.66 3 1 C3 1.66 3 2.32 3 3 C2.01 3 1.02 3 0 3 C0 2.01 0 1.02 0 0 Z " fill="#FFFFFF" transform="translate(2579,520)"/>
<path d="M0 0 C0.99 0.33 1.98 0.66 3 1 C3 1.66 3 2.32 3 3 C2.01 2.67 1.02 2.34 0 2 C0 1.34 0 0.68 0 0 Z " fill="#FFFFFF" transform="translate(2582,517)"/>
<path d="M0 0 C0.99 0.33 1.98 0.66 3 1 C3 1.66 3 2.32 3 3 C2.01 3 1.02 3 0 3 C0 2.01 0 1.02 0 0 Z " fill="#FFFFFF" transform="translate(1179,512)"/>
<path d="M0 0 C0.66 0.33 1.32 0.66 2 1 C2 1.66 2 2.32 2 3 C1.01 3 0.02 3 -1 3 C-0.67 2.01 -0.34 1.02 0 0 Z " fill="#FFFFFF" transform="translate(2845,347)"/>
<path d="M0 0 C0.66 0 1.32 0 2 0 C1.67 0.99 1.34 1.98 1 3 C0.34 3 -0.32 3 -1 3 C-0.67 2.01 -0.34 1.02 0 0 Z " fill="#FFFFFF" transform="translate(1307,240)"/>
<path d="M0 0 C0.99 0 1.98 0 3 0 C3 0.99 3 1.98 3 3 C2.34 3 1.68 3 1 3 C0.67 2.01 0.34 1.02 0 0 Z " fill="#FFFFFF" transform="translate(2282,205)"/>
<path d="M0 0 C0.66 0 1.32 0 2 0 C1.67 0.99 1.34 1.98 1 3 C0.34 3 -0.32 3 -1 3 C-0.67 2.01 -0.34 1.02 0 0 Z " fill="#FFFFFF" transform="translate(1556,80)"/>
<path d="M0 0 C0.99 0.33 1.98 0.66 3 1 C2.34 1.66 1.68 2.32 1 3 C0.67 2.01 0.34 1.02 0 0 Z " fill="#FFFFFF" transform="translate(2907,1193)"/>
<path d="M0 0 C0.99 0 1.98 0 3 0 C2.67 0.99 2.34 1.98 2 3 C1.34 2.01 0.68 1.02 0 0 Z " fill="#FFFFFF" transform="translate(1049,1098)"/>
<path d="M0 0 C0.99 0.33 1.98 0.66 3 1 C2.34 1.66 1.68 2.32 1 3 C0.67 2.01 0.34 1.02 0 0 Z " fill="#FFFFFF" transform="translate(2784,619)"/>
<path d="M0 0 C0.99 0 1.98 0 3 0 C3 0.66 3 1.32 3 2 C2.01 2 1.02 2 0 2 C0 1.34 0 0.68 0 0 Z " fill="#FFFFFF" transform="translate(2655,443)"/>
<path d="M0 0 C0.66 0 1.32 0 2 0 C2 0.99 2 1.98 2 3 C1.34 3 0.68 3 0 3 C0 2.01 0 1.02 0 0 Z " fill="#FFFFFF" transform="translate(1106,103)"/>
<path d="M0 0 C0.99 0.33 1.98 0.66 3 1 C2.01 1.33 1.02 1.66 0 2 C0 1.34 0 0.68 0 0 Z " fill="#FFFFFF" transform="translate(2394,1132)"/>
<path d="M0 0 C0.66 0 1.32 0 2 0 C1.67 0.99 1.34 1.98 1 3 C0.67 2.01 0.34 1.02 0 0 Z " fill="#FFFFFF" transform="translate(836,1051)"/>
<path d="M0 0 C0.66 0 1.32 0 2 0 C2 0.66 2 1.32 2 2 C1.34 2 0.68 2 0 2 C0 1.34 0 0.68 0 0 Z " fill="#FFFFFF" transform="translate(840,1050)"/>
<path d="M0 0 C0.99 0.33 1.98 0.66 3 1 C2.01 1.33 1.02 1.66 0 2 C0 1.34 0 0.68 0 0 Z " fill="#FFFFFF" transform="translate(2656,447)"/>
<path d="" fill="#FFFFFF" transform="translate(0,0)"/>
<path d="" fill="#FFFFFF" transform="translate(0,0)"/>
<path d="" fill="#FFFFFF" transform="translate(0,0)"/>
</svg>
